<svg viewBox="0 0 32 32" xml:space="preserve" xmlns="http://www.w3.org/2000/svg" fill-rule="evenodd" clip-rule="evenodd" stroke-linejoin="round" stroke-miterlimit="2"><path d="M14.995 11h-.003a3.001 3.001 0 0 0 0 6h2a1 1 0 0 1 0 2h-3a1 1 0 0 0 0 2h1.003v1a1 1 0 0 0 2 0v-1a3.001 3.001 0 0 0-.003-6h-2a1 1 0 0 1 0-2h3a1 1 0 0 0 0-2h-.997v-1a1 1 0 0 0-2 0v1Z" fill="#ffffff" class="fill-000000"></path><path d="M10.303 7h17.689a1 1 0 0 1 1 1v18a1 1 0 0 0 2 0V8a3 3 0 0 0-3-3H10.303l1.752-1.168a1 1 0 0 0-1.11-1.664l-4.5 3a1 1 0 0 0 0 1.664l4.5 3a1 1 0 0 0 1.11-1.664L10.303 7ZM21.697 27l-1.752 1.168a1 1 0 0 0 1.11 1.664l4.5-3a1 1 0 0 0 0-1.664l-4.5-3a1 1 0 0 0-1.11 1.664L21.697 25H3.992a.997.997 0 0 1-1-1V6a1 1 0 0 0-2 0v18a3 3 0 0 0 3 3h17.705Z" fill="#ffffff" class="fill-000000"></path></svg>